<svg width="282" height="92" viewBox="0 0 282 92" fill="none" xmlns="http://www.w3.org/2000/svg">
<g clip-path="url(#clip0_5515_34781)">
<path d="M22.5139 27.373L50.8817 17.0475C52.0597 16.6187 53.2949 17.52 53.2949 18.8083V34.4307C53.2949 35.2224 52.8108 35.928 52.0869 36.1915L22.5139 46.9557V27.373Z" fill="#292CAD"/>
<path d="M22.5139 57.7451L53.2949 41.9844V58.6588C53.2949 59.0589 53.1713 59.4556 52.9009 59.7504C52.4662 60.2243 52.1536 60.3773 51.6699 60.6251L25.1271 74.863C23.9237 75.4792 22.5139 74.5725 22.5139 73.1824L22.5139 57.7451Z" fill="url(#paint0_linear_5515_34781)"/>
<path d="M30.4602 31.1932C30.4602 30.1901 31.2243 29.0988 32.1669 28.7558L47.9543 23.0096C48.8969 22.6666 49.661 23.2016 49.661 24.2047V26.021L30.4602 33.0095V31.1932Z" fill="#E5E50B"/>
<path d="M30.4602 38.0038C30.4602 37.0007 31.2243 35.9094 32.1669 35.5663L47.9543 29.8202C48.8969 29.4771 49.661 30.0122 49.661 31.0153V32.8315L30.4602 39.82V38.0038Z" fill="#E5E50B"/>
<path d="M22.5139 50.1349L50.8817 60.4217C52.0597 60.8489 53.2949 59.951 53.2949 58.6674V39.9321C53.2949 39.1434 52.8108 38.4404 52.0869 38.1779L22.5139 27.454V50.1349Z" fill="#3D41FA"/>
<path d="M22.5139 29.8809L50.44 39.7759C50.9838 39.9686 51.3472 40.483 51.3472 41.0599V57.6175C51.3472 57.931 51.037 58.1502 50.7415 58.0455L22.5139 48.0436" stroke="#EEFF41" stroke-width="0.227034" stroke-dasharray="0.45 0.45"/>
<path d="M92.4907 50.3289C92.4907 52.0521 92.0931 53.593 91.2977 54.9517C90.5355 56.3104 89.2928 57.3709 87.5696 58.1331C85.8795 58.8953 83.6426 59.2764 80.8589 59.2764C78.9037 59.2764 77.1474 59.1604 75.5898 58.9284C74.0655 58.7296 72.5079 58.3319 70.9172 57.7354V50.13C72.6736 50.9254 74.4466 51.5053 76.2361 51.8698C78.0256 52.2012 79.434 52.3669 80.4613 52.3669C81.5217 52.3669 82.3005 52.2509 82.7976 52.0189C83.2947 51.787 83.5432 51.439 83.5432 50.9751C83.5432 50.5774 83.3775 50.2294 83.0461 49.9312C82.7147 49.6329 82.1182 49.3015 81.2566 48.937C80.4281 48.5725 79.2351 48.0754 77.6776 47.4458C76.1532 46.8161 74.8774 46.1368 73.85 45.4077C72.8559 44.6455 72.1103 43.7508 71.6132 42.7235C71.1161 41.663 70.8675 40.3872 70.8675 38.8959C70.8675 36.2116 71.8948 34.1902 73.9495 32.8315C76.0372 31.4728 78.7878 30.7934 82.2011 30.7934C84.0237 30.7934 85.7304 30.9923 87.321 31.3899C88.9117 31.7876 90.5687 32.3675 92.2919 33.1297L89.7071 39.2439C88.3484 38.6142 86.9731 38.1171 85.5813 37.7526C84.1894 37.3881 83.0793 37.2058 82.2508 37.2058C81.5217 37.2058 80.9418 37.3052 80.511 37.5041C80.1133 37.7029 79.9145 37.9846 79.9145 38.3491C79.9145 38.6805 80.047 38.9788 80.3122 39.2439C80.6104 39.509 81.1572 39.8072 81.9525 40.1386C82.7479 40.47 83.9077 40.9505 85.4321 41.5802C87.0228 42.2098 88.3318 42.9057 89.3591 43.6679C90.4195 44.397 91.1983 45.2917 91.6954 46.3522C92.2256 47.3795 92.4907 48.705 92.4907 50.3289ZM109.173 30.7934C112.653 30.7934 115.37 31.655 117.325 33.3783C119.28 35.1015 120.258 37.5538 120.258 40.7351V58.7793H113.696L111.857 55.1506H111.658C110.896 56.1116 110.101 56.9069 109.272 57.5366C108.477 58.1331 107.549 58.5639 106.489 58.829C105.428 59.1273 104.136 59.2764 102.611 59.2764C101.021 59.2764 99.5958 58.9616 98.3365 58.3319C97.0772 57.6691 96.0831 56.6915 95.354 55.3991C94.625 54.0736 94.2604 52.4 94.2604 50.3786C94.2604 47.4292 95.2712 45.242 97.2926 43.817C99.3473 42.3921 102.313 41.5967 106.19 41.431L110.764 41.2819V40.8842C110.764 39.6581 110.465 38.7965 109.869 38.2994C109.272 37.7692 108.46 37.5041 107.433 37.5041C106.34 37.5041 105.13 37.7029 103.804 38.1006C102.479 38.4651 101.137 38.9456 99.7781 39.5421L97.0441 33.2788C98.6348 32.4504 100.424 31.8373 102.413 31.4396C104.434 31.0088 106.688 30.7934 109.173 30.7934ZM108.626 46.6007C106.903 46.667 105.677 46.9818 104.948 47.5452C104.252 48.0754 103.904 48.8376 103.904 49.8318C103.904 50.7597 104.152 51.4556 104.649 51.9195C105.147 52.3503 105.809 52.5657 106.638 52.5657C107.798 52.5657 108.775 52.2012 109.571 51.4722C110.399 50.7431 110.813 49.7986 110.813 48.6388V46.5013L108.626 46.6007ZM134.228 58.7793H124.734V21.0009H134.228V58.7793ZM151.738 30.7934C155.217 30.7934 157.935 31.655 159.89 33.3783C161.845 35.1015 162.823 37.5538 162.823 40.7351V58.7793H156.261L154.422 55.1506H154.223C153.461 56.1116 152.666 56.9069 151.837 57.5366C151.042 58.1331 150.114 58.5639 149.054 58.829C147.993 59.1273 146.701 59.2764 145.176 59.2764C143.586 59.2764 142.161 58.9616 140.901 58.3319C139.642 57.6691 138.648 56.6915 137.919 55.3991C137.19 54.0736 136.825 52.4 136.825 50.3786C136.825 47.4292 137.836 45.242 139.857 43.817C141.912 42.3921 144.878 41.5967 148.755 41.431L153.328 41.2819V40.8842C153.328 39.6581 153.03 38.7965 152.434 38.2994C151.837 37.7692 151.025 37.5041 149.998 37.5041C148.904 37.5041 147.695 37.7029 146.369 38.1006C145.044 38.4651 143.702 38.9456 142.343 39.5421L139.609 33.2788C141.2 32.4504 142.989 31.8373 144.977 31.4396C146.999 31.0088 149.252 30.7934 151.738 30.7934ZM151.191 46.6007C149.468 46.667 148.242 46.9818 147.513 47.5452C146.817 48.0754 146.469 48.8376 146.469 49.8318C146.469 50.7597 146.717 51.4556 147.214 51.9195C147.711 52.3503 148.374 52.5657 149.203 52.5657C150.363 52.5657 151.34 52.2012 152.135 51.4722C152.964 50.7431 153.378 49.7986 153.378 48.6388V46.5013L151.191 46.6007ZM183.404 30.7934C183.935 30.7934 184.481 30.8266 185.045 30.8928C185.608 30.9591 186.022 31.0254 186.288 31.0917L185.442 40.0392C185.111 39.9729 184.697 39.9066 184.2 39.8404C183.736 39.7741 183.073 39.741 182.211 39.741C181.615 39.741 180.969 39.8072 180.273 39.9398C179.61 40.0392 178.964 40.2712 178.334 40.6357C177.738 41.0002 177.241 41.547 176.843 42.2761C176.478 43.0051 176.296 43.9993 176.296 45.2586V58.7793H166.802V31.2905H173.86L175.352 35.6649H175.799C176.296 34.7701 176.942 33.9582 177.738 33.2291C178.533 32.4669 179.411 31.8704 180.372 31.4396C181.366 31.0088 182.377 30.7934 183.404 30.7934ZM187.766 31.2905H197.758L202.43 47.0481C202.497 47.2801 202.563 47.5618 202.629 47.8931C202.695 48.2245 202.745 48.5725 202.778 48.937C202.845 49.3015 202.878 49.6661 202.878 50.0306H203.077C203.143 49.3678 203.226 48.8045 203.325 48.3405C203.458 47.8434 203.574 47.4292 203.673 47.0978L208.445 31.2905H218.138L207.252 60.5191C206.424 62.7394 205.446 64.6118 204.319 66.1362C203.226 67.6605 201.867 68.8038 200.243 69.566C198.619 70.3282 196.598 70.7093 194.179 70.7093C193.317 70.7093 192.571 70.6596 191.942 70.5602C191.312 70.4939 190.765 70.4111 190.301 70.3117V62.8554C190.666 62.9217 191.097 62.9879 191.594 63.0542C192.124 63.1205 192.671 63.1536 193.234 63.1536C194.295 63.1536 195.14 62.9382 195.769 62.5074C196.432 62.0766 196.979 61.5133 197.41 60.8173C197.841 60.1546 198.205 59.4255 198.503 58.6302L198.603 58.3816L187.766 31.2905Z" fill="#3D41FA"/>
<path d="M239.465 62.7566C239.465 64.4798 239.067 66.0208 238.272 67.3795C237.51 68.7382 236.267 69.7986 234.544 70.5608C232.854 71.323 230.617 71.7041 227.833 71.7041C225.878 71.7041 224.122 71.5881 222.564 71.3562C221.04 71.1573 219.482 70.7597 217.892 70.1632V62.5578C219.648 63.3531 221.421 63.933 223.21 64.2976C225 64.6289 226.408 64.7946 227.436 64.7946C228.496 64.7946 229.275 64.6787 229.772 64.4467C230.269 64.2147 230.518 63.8667 230.518 63.4028C230.518 63.0051 230.352 62.6572 230.02 62.3589C229.689 62.0607 229.093 61.7293 228.231 61.3648C227.403 61.0002 226.209 60.5031 224.652 59.8735C223.128 59.2439 221.852 58.5645 220.824 57.8355C219.83 57.0733 219.085 56.1785 218.588 55.1512C218.09 54.0907 217.842 52.8149 217.842 51.3236C217.842 48.6394 218.869 46.6179 220.924 45.2592C223.012 43.9005 225.762 43.2212 229.175 43.2212C230.998 43.2212 232.705 43.42 234.295 43.8177C235.886 44.2153 237.543 44.7953 239.266 45.5575L236.681 51.6716C235.323 51.042 233.947 50.5449 232.556 50.1803C231.164 49.8158 230.054 49.6336 229.225 49.6336C228.496 49.6336 227.916 49.733 227.485 49.9318C227.088 50.1306 226.889 50.4123 226.889 50.7768C226.889 51.1082 227.021 51.4065 227.287 51.6716C227.585 51.9367 228.132 52.235 228.927 52.5664C229.722 52.8977 230.882 53.3783 232.406 54.0079C233.997 54.6375 235.306 55.3335 236.333 56.0957C237.394 56.8247 238.173 57.7195 238.67 58.7799C239.2 59.8072 239.465 61.1328 239.465 62.7566ZM254.109 43.2212C256.794 43.2212 259.097 43.6851 261.019 44.613C262.974 45.5409 264.465 46.9327 265.493 48.7885C266.553 50.6443 267.083 52.9806 267.083 55.7974V60.0226H250.133C250.199 61.4476 250.729 62.624 251.723 63.5519C252.751 64.4798 254.225 64.9438 256.147 64.9438C257.871 64.9438 259.445 64.7781 260.87 64.4467C262.295 64.1153 263.769 63.5851 265.294 62.856V69.6661C263.968 70.362 262.51 70.8756 260.919 71.207C259.362 71.5384 257.39 71.7041 255.004 71.7041C252.22 71.7041 249.735 71.2236 247.548 70.2626C245.394 69.2684 243.687 67.7274 242.428 65.6397C241.169 63.5519 240.539 60.8842 240.539 57.6366C240.539 54.3227 241.102 51.6053 242.229 49.4844C243.389 47.3635 244.979 45.7894 247.001 44.7621C249.056 43.7348 251.425 43.2212 254.109 43.2212ZM254.457 49.6833C253.331 49.6833 252.386 50.0312 251.624 50.7271C250.895 51.4231 250.464 52.5332 250.331 54.0576H258.484C258.484 53.2291 258.318 52.5001 257.987 51.8704C257.688 51.2077 257.241 50.6774 256.644 50.2798C256.048 49.8821 255.319 49.6833 254.457 49.6833Z" fill="#DBDB00"/>
</g>
<defs>
<linearGradient id="paint0_linear_5515_34781" x1="20.4407" y1="66.6293" x2="57.8931" y2="58.5173" gradientUnits="userSpaceOnUse">
<stop stop-color="#3D41FA"/>
<stop offset="0.51" stop-color="#292CAD"/>
</linearGradient>
<clipPath id="clip0_5515_34781">
<rect width="282" height="92" fill="white"/>
</clipPath>
</defs>
</svg>
